# xmcd
#
# Track frame offsets: 
#        150
#        38912
#        70643
#        105409
#        141777
#        179307
#        218956
#        249088
#        304080
#        331254
#
# Disc length: 4802 seconds
#
# Revision: 0
# Processed by: cddbd v1.5.2PL0 Copyright (c) Steve Scherf et al.
# Submitted via: ExactAudioCopy v1.3
#
DISCID=8212c00a
DTITLE=Various Artist - Akella Presents - vol. 128 - Long Times Blues
DTITLE=CD1
DYEAR=2018
DGENRE=Blues
TTITLE0=Wildmen Bluesband and Saskia De Nijs - It's Freezing In My Heart
TTITLE1=Austin Young and No Difference - Give Me One Good Reason
TTITLE2=Lightnin' Bug - My Fags
TTITLE3=Indigenous - Dark Days
TTITLE4=Julian Sas - Ragin' River
TTITLE5=Tinsley Ellis - Saving Grace
TTITLE6=Gregg Wright's Left Hook - ...or Die Trying
TTITLE7=Scotty Bratcher - No Quarter
TTITLE8=Green - My Whole World
TTITLE9=Mike Goudreau - C'etait Un Peu Trop Beau
EXTD=
EXTT0=
EXTT1=
EXTT2=
EXTT3=
EXTT4=
EXTT5=
EXTT6=
EXTT7=
EXTT8=
EXTT9=
PLAYORDER=
